# xmcd CD database file
# Copyright (C) 1997 Ti Kan
# 
# Track frame offsets:
#     200
#     21535
#     44335
#     61785
# 
# Disc length: 1143 seconds
# 
# Revision: 1
# Processed by: cddbd v1.4b41PL1 Copyright (c) Steve Scherf et al.
# Submitted via: DiscPlay 4.0.4
# 
DISCID=2f047504
DTITLE=Hi-Five - I can't wait another minute
DYEAR=1900
DGENRE=
TTITLE0=I can't another minute
TTITLE1=I can't wait another minute (LP ver.)
TTITLE2=I know Love
TTITLE3=I can't wait another minute (live ver.)
EXTD=
EXTT0=
EXTT1=
EXTT2=
EXTT3=
PLAYORDER=
